<svg width="20" height="19" viewBox="0 0 20 19" fill="none" xmlns="http://www.w3.org/2000/svg">
<path id="Arrow 2" d="M1.383 16.0798C0.797218 16.6656 0.797218 17.6153 1.383 18.2011C1.96879 18.7869 2.91854 18.7869 3.50432 18.2011L1.383 16.0798ZM19.5 1.58412C19.5 0.755696 18.8284 0.0841235 18 0.0841235H4.50001C3.67159 0.0841235 3.00001 0.755696 3.00001 1.58412C3.00001 2.41255 3.67159 3.08412 4.50001 3.08412H16.5V15.0841C16.5 15.9126 17.1716 16.5841 18 16.5841C18.8284 16.5841 19.5 15.9126 19.5 15.0841V1.58412ZM3.50432 18.2011L19.0607 2.64478L16.9394 0.523463L1.383 16.0798L3.50432 18.2011Z" fill="#F2F2F2"/>
</svg>
