<svg width="1512" height="907" viewBox="0 0 1512 907" fill="none" xmlns="http://www.w3.org/2000/svg">
<g clip-path="url(#clip0_853_3454)">
<ellipse cx="320" cy="699.5" rx="501" ry="486.5" fill="url(#paint0_radial_853_3454)" fill-opacity="0.19"/>
<ellipse cx="824" cy="765.076" rx="412" ry="400.076" fill="url(#paint1_radial_853_3454)" fill-opacity="0.2"/>
<path d="M648.034 376.541C648.025 379.904 647.978 383.273 647.892 386.649C647.341 386.634 646.881 387.069 646.866 387.621C646.811 389.639 646.742 391.659 646.659 393.681C646.576 395.703 646.48 397.722 646.37 399.738C646.34 400.289 646.762 400.76 647.313 400.79C647.122 404.162 646.894 407.524 646.628 410.876C646.078 410.832 645.596 411.242 645.551 411.792C645.224 415.806 644.844 419.806 644.411 423.793C644.351 424.341 644.747 424.835 645.296 424.895C644.923 428.253 644.513 431.601 644.066 434.939C643.52 434.865 643.016 435.248 642.942 435.795C642.399 439.782 641.803 443.753 641.155 447.71C641.066 448.254 641.435 448.768 641.979 448.858C641.426 452.191 640.835 455.514 640.208 458.825C639.666 458.722 639.142 459.077 639.038 459.619C638.28 463.573 637.47 467.512 636.607 471.433C636.489 471.973 636.829 472.506 637.368 472.625C636.636 475.917 635.868 479.198 635.063 482.467C634.528 482.335 633.986 482.661 633.853 483.197C632.882 487.106 631.859 490.997 630.786 494.871C630.638 495.403 630.95 495.954 631.481 496.102C630.574 499.347 629.632 502.579 628.653 505.798C628.126 505.637 627.567 505.934 627.406 506.462C626.226 510.313 624.996 514.146 623.716 517.96C623.541 518.484 623.822 519.05 624.345 519.226C623.267 522.416 622.154 525.593 621.006 528.756C620.487 528.567 619.914 528.834 619.724 529.353C618.343 533.134 616.912 536.897 615.431 540.64C615.228 541.153 615.479 541.734 615.992 541.937C614.747 545.065 613.468 548.18 612.156 551.28C611.648 551.065 611.061 551.301 610.845 551.809C609.268 555.511 607.642 559.193 605.969 562.854C605.74 563.356 605.961 563.949 606.462 564.179C605.056 567.239 603.617 570.285 602.145 573.316C601.648 573.075 601.05 573.28 600.808 573.776C599.043 577.39 597.232 580.982 595.374 584.553C595.12 585.043 595.31 585.646 595.799 585.901C594.239 588.885 592.646 591.854 591.022 594.808C590.539 594.542 589.931 594.717 589.664 595.2C587.719 598.719 585.729 602.216 583.695 605.69C583.416 606.167 583.576 606.779 584.051 607.058C582.345 609.959 580.606 612.845 578.838 615.714C578.368 615.424 577.752 615.57 577.462 616.039C575.345 619.457 573.184 622.853 570.981 626.226C570.679 626.688 570.808 627.308 571.27 627.61C569.424 630.422 567.549 633.218 565.643 635.998C565.189 635.686 564.567 635.801 564.254 636.255C561.973 639.569 559.649 642.859 557.285 646.126C556.961 646.573 557.061 647.197 557.507 647.521C555.531 650.24 553.526 652.942 551.492 655.626C551.053 655.293 550.426 655.378 550.092 655.818C547.655 659.022 545.177 662.203 542.659 665.358C542.315 665.79 542.386 666.419 542.817 666.763C540.718 669.384 538.591 671.987 536.438 674.573C536.014 674.219 535.384 674.276 535.03 674.699C532.448 677.788 529.826 680.852 527.166 683.89C526.803 684.306 526.844 684.937 527.259 685.301C525.043 687.823 522.801 690.328 520.532 692.814C520.125 692.442 519.493 692.47 519.12 692.877C516.403 695.844 513.649 698.786 510.859 701.702C510.477 702.1 510.49 702.733 510.889 703.115C508.56 705.539 506.207 707.944 503.828 710.332C503.437 709.942 502.805 709.942 502.414 710.333C499.572 713.175 496.695 715.991 493.782 718.781C493.384 719.163 493.37 719.796 493.752 720.195C491.317 722.518 488.858 724.824 486.375 727.111C486.002 726.704 485.369 726.677 484.962 727.05C482.004 729.765 479.012 732.453 475.987 735.115C475.572 735.479 475.532 736.111 475.897 736.526C473.361 738.748 470.803 740.952 468.222 743.136C467.866 742.714 467.235 742.661 466.813 743.017C463.747 745.602 460.649 748.161 457.52 750.692C457.09 751.039 457.024 751.669 457.371 752.098C454.749 754.212 452.105 756.306 449.44 758.38C449.101 757.944 448.473 757.865 448.037 758.203C444.864 760.664 441.66 763.098 438.426 765.504C437.983 765.834 437.891 766.46 438.22 766.903C435.519 768.906 432.797 770.889 430.055 772.853C429.734 772.403 429.109 772.299 428.66 772.62C425.385 774.956 422.081 777.264 418.749 779.544C418.293 779.856 418.176 780.479 418.488 780.934C415.714 782.826 412.921 784.697 410.108 786.549C409.805 786.087 409.185 785.958 408.723 786.261C405.353 788.472 401.956 790.654 398.53 792.807C398.063 793.101 397.922 793.718 398.216 794.186C395.376 795.965 392.517 797.725 389.64 799.464C389.355 798.991 388.74 798.839 388.267 799.124C384.82 801.2 381.346 803.248 377.846 805.267C377.368 805.543 377.204 806.154 377.479 806.633C374.567 808.307 371.637 809.961 368.689 811.594C368.422 811.111 367.814 810.936 367.331 811.203C363.813 813.146 360.27 815.059 356.702 816.944C356.214 817.201 356.027 817.806 356.285 818.294C353.305 819.863 350.307 821.411 347.293 822.938C347.044 822.446 346.443 822.248 345.95 822.497C342.368 824.305 338.763 826.084 335.135 827.834C334.638 828.074 334.429 828.671 334.668 829.168C331.63 830.628 328.577 832.066 325.508 833.484C325.277 832.983 324.683 832.763 324.182 832.994C320.536 834.671 316.867 836.319 313.178 837.937C312.672 838.159 312.442 838.748 312.663 839.254C309.581 840.6 306.484 841.925 303.372 843.23C303.159 842.721 302.574 842.48 302.065 842.693C298.352 844.243 294.618 845.763 290.863 847.253C290.35 847.456 290.099 848.037 290.302 848.55C287.181 849.784 284.046 850.996 280.897 852.187C280.702 851.671 280.126 851.41 279.609 851.605C275.838 853.025 272.046 854.415 268.236 855.775C267.716 855.961 267.445 856.532 267.63 857.052C264.471 858.175 261.298 859.276 258.112 860.356C257.935 859.833 257.368 859.552 256.845 859.729C253.034 861.015 249.204 862.271 245.356 863.496C244.83 863.664 244.539 864.226 244.706 864.752C241.499 865.768 238.279 866.763 235.048 867.736C234.889 867.207 234.332 866.907 233.803 867.066C229.957 868.218 226.094 869.34 222.214 870.431C221.683 870.581 221.373 871.133 221.522 871.665C218.275 872.573 215.016 873.46 211.746 874.325C211.605 873.791 211.059 873.472 210.524 873.613C206.645 874.633 202.749 875.623 198.838 876.582C198.302 876.714 197.974 877.255 198.105 877.791C194.837 878.588 191.559 879.363 188.269 880.116C188.147 879.578 187.611 879.24 187.073 879.363C183.148 880.256 179.209 881.118 175.255 881.949C174.714 882.062 174.368 882.593 174.482 883.133C171.198 883.818 167.904 884.482 164.6 885.124C164.496 884.582 163.971 884.227 163.429 884.332C159.473 885.095 155.502 885.828 151.518 886.528C150.974 886.624 150.611 887.142 150.707 887.686C147.402 888.263 144.087 888.818 140.764 889.352C140.677 888.806 140.164 888.434 139.619 888.521C135.649 889.153 131.666 889.753 127.67 890.322C127.123 890.4 126.743 890.906 126.821 891.453C123.484 891.924 120.138 892.373 116.783 892.8C116.715 892.252 116.214 891.863 115.666 891.932C111.688 892.433 107.697 892.903 103.695 893.341C103.146 893.401 102.75 893.895 102.81 894.444C99.462 894.807 96.106 895.147 92.7422 895.465C92.691 894.915 92.2036 894.511 91.6537 894.562C87.652 894.936 83.6391 895.278 79.6155 895.588C79.0649 895.631 78.653 896.111 78.6955 896.662C75.3482 896.916 71.9936 897.148 68.6318 897.358C68.5981 896.807 68.1239 896.387 67.5726 896.421C63.5479 896.667 59.5129 896.882 55.468 897.065C54.9163 897.09 54.4892 897.557 54.5142 898.109C51.1671 898.256 47.8132 898.381 44.4528 898.484C44.4366 897.932 43.9759 897.498 43.4239 897.514C39.4045 897.632 35.3758 897.719 31.3381 897.774C30.7859 897.782 30.3443 898.236 30.3519 898.788C26.9827 898.83 23.6072 898.849 20.2258 898.847C20.2269 898.295 19.7801 897.846 19.2278 897.845C15.2187 897.837 11.2012 897.797 7.17558 897.727C6.62339 897.717 6.16788 898.157 6.15816 898.709C2.79142 898.645 -0.581013 898.56 -3.95877 898.452C-3.94044 897.9 -4.37306 897.438 -4.92508 897.42C-6.94576 897.353 -8.96837 897.278 -10.9929 897.195C-13.0175 897.112 -15.0394 897.021 -17.0588 896.923C-17.6105 896.896 -18.0795 897.321 -18.1063 897.873C-21.4816 897.704 -24.8497 897.513 -28.2104 897.302C-28.1749 896.75 -28.5929 896.275 -29.1441 896.239C-33.162 895.981 -37.1693 895.692 -41.1656 895.372C-41.7162 895.328 -42.1982 895.738 -42.2422 896.289C-45.6125 896.015 -48.975 895.719 -52.3296 895.402C-52.2769 894.852 -52.6799 894.364 -53.2297 894.311C-57.2493 893.926 -61.2574 893.51 -65.2536 893.064C-65.8025 893.002 -66.2971 893.398 -66.3585 893.946C-69.6991 893.569 -73.0316 893.17 -76.3555 892.75C-76.2855 892.202 -76.6729 891.701 -77.2207 891.631C-81.2371 891.118 -85.241 890.574 -89.2321 890C-89.7788 889.921 -90.2857 890.301 -90.3644 890.847C-93.6978 890.363 -97.0222 889.858 -100.337 889.331C-100.25 888.785 -100.621 888.273 -101.167 888.185C-105.151 887.547 -109.123 886.878 -113.081 886.179C-113.624 886.083 -114.143 886.446 -114.239 886.989C-117.566 886.397 -120.883 885.784 -124.19 885.149C-124.085 884.607 -124.44 884.082 -124.982 883.977C-128.935 883.213 -132.874 882.418 -136.798 881.594C-137.338 881.481 -137.869 881.827 -137.982 882.367C-141.291 881.667 -144.589 880.947 -147.876 880.205C-147.754 879.666 -148.091 879.13 -148.63 879.008C-152.566 878.114 -156.486 877.19 -160.391 876.236C-160.928 876.105 -161.469 876.434 -161.6 876.97C-164.869 876.167 -168.127 875.342 -171.374 874.498C-171.234 873.963 -171.554 873.417 -172.088 873.277C-176.001 872.253 -179.898 871.198 -183.779 870.114C-184.311 869.965 -184.863 870.276 -185.011 870.808C-188.251 869.898 -191.48 868.967 -194.697 868.016C-194.539 867.486 -194.841 866.93 -195.37 866.772C-199.243 865.621 -203.099 864.439 -206.937 863.229C-207.464 863.062 -208.026 863.355 -208.192 863.881C-211.408 862.862 -214.613 861.821 -217.804 860.76C-217.629 860.236 -217.912 859.67 -218.436 859.495C-222.256 858.219 -226.057 856.914 -229.84 855.58C-230.361 855.396 -230.932 855.67 -231.116 856.19C-234.305 855.061 -237.48 853.91 -240.642 852.74C-240.45 852.222 -240.713 851.646 -241.231 851.454C-245.009 850.049 -248.767 848.615 -252.506 847.152C-253.02 846.951 -253.599 847.204 -253.801 847.718C-256.942 846.484 -260.07 845.229 -263.183 843.954C-262.974 843.443 -263.218 842.859 -263.728 842.649C-267.463 841.114 -271.178 839.549 -274.871 837.955C-275.378 837.737 -275.966 837.97 -276.185 838.477C-279.272 837.14 -282.344 835.783 -285.401 834.406C-285.174 833.903 -285.397 833.311 -285.9 833.084C-289.587 831.417 -293.252 829.721 -296.894 827.997C-297.393 827.761 -297.989 827.974 -298.226 828.473C-301.267 827.028 -304.292 825.563 -307.302 824.079C-307.058 823.584 -307.26 822.985 -307.755 822.74C-311.375 820.948 -314.972 819.128 -318.546 817.279C-319.037 817.026 -319.64 817.217 -319.893 817.708C-322.888 816.153 -325.866 814.579 -328.828 812.986C-328.566 812.5 -328.747 811.893 -329.233 811.631C-332.778 809.717 -336.299 807.775 -339.796 805.805C-340.277 805.534 -340.886 805.704 -341.158 806.184C-344.101 804.521 -347.027 802.837 -349.935 801.135C-349.655 800.658 -349.815 800.046 -350.291 799.766C-353.764 797.726 -357.212 795.658 -360.634 793.563C-361.104 793.275 -361.72 793.422 -362.008 793.893C-364.887 792.124 -367.748 790.336 -370.59 788.529C-370.294 788.064 -370.43 787.446 -370.896 787.149C-374.297 784.979 -377.672 782.782 -381.019 780.559C-381.479 780.253 -382.099 780.378 -382.405 780.837C-385.209 778.968 -387.994 777.08 -390.76 775.174C-390.446 774.72 -390.56 774.097 -391.014 773.783C-394.337 771.485 -397.632 769.16 -400.898 766.808C-401.346 766.485 -401.971 766.587 -402.293 767.034C-405.019 765.066 -407.724 763.078 -410.409 761.073C-410.079 760.631 -410.169 760.005 -410.61 759.673C-413.848 757.247 -417.056 754.795 -420.234 752.316C-420.669 751.977 -421.297 752.054 -421.637 752.489C-424.289 750.413 -426.92 748.32 -429.53 746.208C-429.183 745.779 -429.248 745.15 -429.677 744.802C-432.812 742.257 -435.916 739.686 -438.988 737.09C-439.41 736.734 -440.04 736.787 -440.397 737.208C-442.97 735.027 -445.521 732.828 -448.049 730.611C-447.685 730.196 -447.725 729.565 -448.14 729.2C-451.166 726.538 -454.16 723.85 -457.122 721.138C-457.529 720.765 -458.161 720.792 -458.534 721.199C-461.021 718.913 -463.485 716.61 -465.925 714.289C-465.544 713.89 -465.559 713.257 -465.959 712.876C-468.871 710.098 -471.749 707.294 -474.593 704.467C-474.984 704.078 -475.617 704.079 -476.007 704.47C-478.401 702.082 -480.77 699.677 -483.115 697.254C-482.718 696.871 -482.707 696.238 -483.09 695.841C-485.888 692.941 -488.65 690.017 -491.376 687.07C-491.751 686.664 -492.383 686.64 -492.789 687.014C-495.077 684.532 -497.339 682.033 -499.575 679.518C-499.163 679.152 -499.125 678.52 -499.491 678.107C-502.165 675.088 -504.803 672.046 -507.403 668.981C-507.76 668.56 -508.391 668.508 -508.812 668.865C-510.988 666.291 -513.137 663.701 -515.259 661.095C-514.831 660.747 -514.766 660.117 -515.113 659.689C-517.656 656.555 -520.161 653.398 -522.626 650.219C-522.964 649.782 -523.592 649.703 -524.028 650.04C-526.086 647.377 -528.116 644.697 -530.118 642.002C-529.675 641.673 -529.582 641.048 -529.91 640.604C-532.313 637.358 -534.675 634.09 -536.996 630.801C-537.314 630.35 -537.938 630.242 -538.389 630.56C-540.324 627.806 -542.23 625.038 -544.108 622.255C-543.65 621.946 -543.529 621.326 -543.836 620.867C-546.088 617.516 -548.297 614.144 -550.464 610.751C-550.761 610.286 -551.379 610.149 -551.844 610.446C-553.651 607.604 -555.429 604.747 -557.176 601.876C-556.704 601.59 -556.554 600.975 -556.84 600.503C-558.93 597.054 -560.976 593.585 -562.979 590.096C-563.253 589.617 -563.864 589.452 -564.343 589.726C-566.014 586.8 -567.655 583.86 -569.265 580.906C-568.78 580.642 -568.6 580.036 -568.863 579.551C-570.784 576.009 -572.66 572.448 -574.49 568.867C-574.741 568.376 -575.343 568.181 -575.834 568.432C-577.363 565.427 -578.859 562.409 -580.323 559.378C-579.826 559.139 -579.617 558.542 -579.856 558.044C-581.599 554.415 -583.297 550.767 -584.947 547.101C-585.174 546.598 -585.765 546.373 -586.269 546.599C-587.646 543.522 -588.991 540.433 -590.302 537.331C-589.793 537.117 -589.554 536.531 -589.768 536.022C-591.328 532.312 -592.839 528.583 -594.302 524.838C-594.503 524.323 -595.083 524.069 -595.597 524.27C-596.816 521.128 -598.002 517.975 -599.153 514.81C-598.634 514.622 -598.366 514.049 -598.553 513.53C-599.921 509.744 -601.24 505.942 -602.509 502.123C-602.683 501.599 -603.249 501.316 -603.773 501.489C-604.828 498.292 -605.848 495.083 -606.833 491.863C-606.305 491.703 -606.007 491.144 -606.167 490.616C-607.337 486.765 -608.455 482.898 -609.523 479.016C-609.67 478.484 -610.219 478.171 -610.752 478.317C-611.637 475.07 -612.487 471.813 -613.301 468.546C-612.765 468.413 -612.438 467.871 -612.57 467.335C-613.534 463.429 -614.447 459.509 -615.307 455.574C-615.425 455.035 -615.957 454.693 -616.497 454.811C-617.208 451.522 -617.884 448.223 -618.522 444.915C-617.98 444.811 -617.625 444.288 -617.728 443.746C-618.482 439.797 -619.183 435.834 -619.831 431.859C-619.92 431.315 -620.433 430.945 -620.978 431.033C-621.512 427.709 -622.009 424.377 -622.469 421.035C-621.923 420.961 -621.54 420.457 -621.614 419.91C-622.153 415.931 -622.639 411.94 -623.071 407.937C-623.13 407.388 -623.623 406.991 -624.172 407.05C-624.526 403.698 -624.843 400.339 -625.122 396.971C-624.572 396.926 -624.163 396.444 -624.207 395.894C-624.529 391.898 -624.798 387.891 -625.013 383.874C-625.043 383.322 -625.513 382.899 -626.064 382.928C-626.237 379.565 -626.372 376.195 -626.468 372.817C-625.917 372.802 -625.481 372.343 -625.496 371.791C-625.602 367.783 -625.654 363.765 -625.652 359.737C-625.651 359.185 -626.098 358.738 -626.65 358.737C-626.641 355.374 -626.594 352.004 -626.508 348.629C-625.957 348.643 -625.497 348.208 -625.482 347.656C-625.427 345.638 -625.358 343.618 -625.275 341.596C-625.192 339.574 -625.096 337.555 -624.986 335.54C-624.956 334.988 -625.378 334.517 -625.929 334.487C-625.738 331.116 -625.51 327.753 -625.244 324.401C-624.694 324.445 -624.212 324.035 -624.167 323.485C-623.84 319.471 -623.46 315.471 -623.027 311.484C-622.967 310.936 -623.363 310.443 -623.912 310.382C-623.539 307.024 -623.129 303.676 -622.682 300.338C-622.135 300.412 -621.632 300.029 -621.558 299.482C-621.015 295.496 -620.419 291.524 -619.771 287.567C-619.682 287.023 -620.051 286.509 -620.595 286.419C-620.042 283.086 -619.451 279.763 -618.824 276.452C-618.282 276.555 -617.758 276.2 -617.654 275.658C-616.896 271.704 -616.086 267.766 -615.223 263.844C-615.104 263.305 -615.445 262.772 -615.984 262.653C-615.252 259.36 -614.484 256.079 -613.68 252.81C-613.144 252.943 -612.602 252.616 -612.469 252.08C-611.498 248.172 -610.475 244.28 -609.402 240.406C-609.254 239.874 -609.566 239.323 -610.097 239.175C-609.19 235.931 -608.248 232.698 -607.269 229.479C-606.742 229.64 -606.183 229.343 -606.022 228.815C-604.842 224.964 -603.612 221.131 -602.332 217.317C-602.157 216.794 -602.438 216.227 -602.961 216.051C-601.883 212.861 -600.77 209.685 -599.622 206.521C-599.103 206.71 -598.53 206.443 -598.34 205.925C-596.959 202.143 -595.527 198.38 -594.047 194.637C-593.844 194.124 -594.096 193.544 -594.608 193.34C-593.363 190.212 -592.084 187.097 -590.772 183.997C-590.264 184.213 -589.677 183.976 -589.461 183.468C-587.884 179.766 -586.258 176.084 -584.585 172.423C-584.356 171.921 -584.577 171.328 -585.078 171.098C-583.672 168.038 -582.233 164.992 -580.76 161.961C-580.264 162.203 -579.666 161.997 -579.424 161.501C-577.659 157.887 -575.848 154.295 -573.99 150.724C-573.736 150.234 -573.926 149.631 -574.415 149.376C-572.855 146.392 -571.262 143.423 -569.638 140.469C-569.155 140.735 -568.547 140.56 -568.28 140.077C-566.335 136.558 -564.345 133.061 -562.311 129.587C-562.032 129.11 -562.192 128.498 -562.667 128.219C-560.96 125.318 -559.222 122.432 -557.454 119.563C-556.984 119.853 -556.368 119.708 -556.078 119.238C-553.961 115.82 -551.8 112.424 -549.597 109.051C-549.295 108.589 -549.424 107.97 -549.886 107.667C-548.04 104.855 -546.165 102.059 -544.259 99.2793C-543.805 99.5918 -543.183 99.4767 -542.87 99.022C-540.589 95.7082 -538.265 92.418 -535.901 89.1517C-535.577 88.7046 -535.677 88.0799 -536.123 87.7558C-534.147 85.0374 -532.142 82.3356 -530.108 79.6508C-529.669 79.9844 -529.042 79.8989 -528.708 79.4595C-526.271 76.2548 -523.793 73.0744 -521.275 69.9188C-520.931 69.4873 -521.002 68.8586 -521.433 68.514C-519.334 65.8936 -517.207 63.2903 -515.054 60.7043C-514.63 61.0579 -514 61.0014 -513.646 60.5779C-511.064 57.4891 -508.442 54.4252 -505.782 51.3868C-505.419 50.9714 -505.461 50.3401 -505.875 49.9763C-503.659 47.4542 -501.417 44.9496 -499.148 42.4629C-498.741 42.8352 -498.109 42.8072 -497.736 42.4C-495.019 39.4329 -492.265 36.4913 -489.475 33.5757C-489.093 33.1769 -489.107 32.5444 -489.505 32.1624C-487.176 29.7386 -484.823 27.3329 -482.444 24.9453C-482.053 25.3352 -481.421 25.335 -481.03 24.9447C-478.188 22.1024 -475.311 19.2862 -472.398 16.4965C-472 16.1147 -471.986 15.4821 -472.367 15.0833C-469.933 12.7594 -467.474 10.454 -464.991 8.16736C-464.617 8.57363 -463.985 8.60054 -463.578 8.22731C-460.62 5.51247 -457.628 2.82413 -454.603 0.162726C-454.188 -0.201863 -454.148 -0.833268 -454.512 -1.24794C-451.977 -3.47039 -449.419 -5.67397 -446.837 -7.85843C-446.481 -7.43684 -445.851 -7.38348 -445.429 -7.73934C-442.363 -10.3248 -439.265 -12.8834 -436.136 -15.4146C-435.706 -15.7618 -435.64 -16.391 -435.986 -16.8204C-433.365 -18.9336 -430.721 -21.0277 -428.055 -23.1025C-427.717 -22.6666 -427.089 -22.5875 -426.653 -22.9259C-423.48 -25.3872 -420.276 -27.821 -417.042 -30.227C-416.599 -30.5565 -416.507 -31.1825 -416.836 -31.6255C-414.135 -33.6282 -411.413 -35.6114 -408.67 -37.575C-408.349 -37.126 -407.725 -37.0218 -407.276 -37.3424C-404.001 -39.6788 -400.697 -41.9872 -397.365 -44.2672C-396.909 -44.5789 -396.793 -45.2008 -397.104 -45.6565C-394.33 -47.5477 -391.536 -49.4193 -388.723 -51.271C-388.42 -50.8098 -387.801 -50.6813 -387.339 -50.984C-383.969 -53.1946 -380.572 -55.3767 -377.146 -57.53C-376.679 -57.8238 -376.538 -58.4407 -376.832 -58.9081C-373.992 -60.6873 -371.133 -62.4468 -368.256 -64.1862C-367.97 -63.7136 -367.356 -63.5614 -366.883 -63.8463C-363.436 -65.9231 -359.962 -67.9712 -356.462 -69.9902C-355.984 -70.266 -355.82 -70.8771 -356.095 -71.3554C-353.183 -73.0294 -350.253 -74.6834 -347.305 -76.317C-347.038 -75.834 -346.43 -75.6588 -345.947 -75.9256C-342.429 -77.8683 -338.886 -79.782 -335.318 -81.6664C-334.83 -81.9242 -334.644 -82.5288 -334.901 -83.017C-331.921 -84.5855 -328.923 -86.1335 -325.909 -87.6609C-325.66 -87.1684 -325.059 -86.9708 -324.566 -87.2196C-320.984 -89.028 -317.379 -90.8072 -313.751 -92.5568C-313.254 -92.7966 -313.045 -93.3939 -313.284 -93.8913C-310.247 -95.3504 -307.193 -96.7889 -304.124 -98.2066C-303.893 -97.7053 -303.299 -97.486 -302.798 -97.7167C-299.152 -99.3941 -295.483 -101.042 -291.794 -102.66C-291.288 -102.882 -291.058 -103.471 -291.279 -103.977C-288.197 -105.323 -285.1 -106.648 -281.988 -107.953C-281.775 -107.443 -281.19 -107.203 -280.681 -107.416C-276.968 -108.966 -273.234 -110.486 -269.479 -111.975C-268.966 -112.179 -268.715 -112.76 -268.918 -113.273C-265.797 -114.506 -262.662 -115.719 -259.513 -116.91C-259.318 -116.394 -258.742 -116.133 -258.225 -116.327C-254.454 -117.748 -250.662 -119.138 -246.852 -120.498C-246.332 -120.683 -246.061 -121.255 -246.246 -121.775C-243.087 -122.897 -239.914 -123.999 -236.728 -125.079C-236.551 -124.556 -235.984 -124.275 -235.461 -124.452C-231.65 -125.738 -227.82 -126.994 -223.972 -128.219C-223.446 -128.386 -223.155 -128.948 -223.322 -129.474C-220.115 -130.491 -216.895 -131.485 -213.664 -132.459C-213.505 -131.93 -212.948 -131.63 -212.419 -131.789C-208.573 -132.941 -204.71 -134.063 -200.83 -135.154C-200.299 -135.304 -199.989 -135.856 -200.138 -136.387C-196.891 -137.295 -193.632 -138.182 -190.362 -139.047C-190.221 -138.514 -189.674 -138.195 -189.14 -138.335C-185.261 -139.356 -181.365 -140.346 -177.454 -141.305C-176.918 -141.436 -176.59 -141.977 -176.721 -142.514C-173.453 -143.31 -170.175 -144.085 -166.885 -144.838C-166.762 -144.3 -166.227 -143.963 -165.689 -144.086C-161.764 -144.979 -157.825 -145.841 -153.871 -146.672C-153.33 -146.785 -152.984 -147.315 -153.098 -147.855C-149.814 -148.541 -146.52 -149.204 -143.216 -149.846C-143.111 -149.305 -142.587 -148.95 -142.045 -149.055C-138.089 -149.818 -134.118 -150.55 -130.134 -151.251C-129.591 -151.347 -129.227 -151.865 -129.322 -152.408C-126.017 -152.985 -122.703 -153.54 -119.379 -154.074C-119.292 -153.529 -118.78 -153.157 -118.235 -153.244C-114.265 -153.875 -110.282 -154.476 -106.286 -155.045C-105.74 -155.123 -105.36 -155.629 -105.437 -156.175C-102.1 -156.646 -98.7539 -157.095 -95.3994 -157.522C-95.3301 -156.974 -94.8302 -156.586 -94.2824 -156.655C-90.3038 -157.156 -86.3132 -157.626 -82.311 -158.064C-81.7622 -158.124 -81.366 -158.618 -81.4257 -159.166C-78.0779 -159.529 -74.722 -159.869 -71.3582 -160.187C-71.3066 -159.638 -70.8194 -159.234 -70.2697 -159.285C-66.268 -159.658 -62.2551 -160 -58.2316 -160.311C-57.6812 -160.353 -57.2693 -160.834 -57.3114 -161.384C-53.9642 -161.638 -50.6096 -161.87 -47.2477 -162.08C-47.2137 -161.529 -46.7397 -161.11 -46.1886 -161.144C-42.1639 -161.39 -38.1289 -161.605 -34.084 -161.787C-33.5326 -161.812 -33.1056 -162.279 -33.1302 -162.831C-29.7831 -162.978 -26.4292 -163.103 -23.0688 -163.206C-23.0523 -162.654 -22.5917 -162.22 -22.0399 -162.237C-18.0205 -162.355 -13.9918 -162.442 -9.95416 -162.497C-9.40218 -162.505 -8.96065 -162.958 -8.96786 -163.51C-5.59864 -163.552 -2.22324 -163.571 1.15815 -163.569C1.15741 -163.017 1.60411 -162.569 2.15616 -162.568C6.16529 -162.56 10.1828 -162.52 14.2084 -162.449C14.7604 -162.44 15.2157 -162.879 15.2258 -163.431C18.5925 -163.368 21.965 -163.282 25.3427 -163.174C25.3248 -162.623 25.7572 -162.161 26.3091 -162.142C28.3297 -162.075 30.3524 -162 32.3769 -161.918C34.4015 -161.835 36.4234 -161.744 38.4428 -161.646C38.9943 -161.619 39.4631 -162.044 39.4903 -162.595C42.8655 -162.426 46.2337 -162.236 49.5943 -162.024C49.5593 -161.473 49.9772 -160.998 50.5281 -160.962C54.546 -160.704 58.5533 -160.414 62.5496 -160.095C63.0999 -160.051 63.5818 -160.461 63.6262 -161.011C66.9965 -160.737 70.3589 -160.441 73.7135 -160.124C73.6611 -159.575 74.0641 -159.087 74.6136 -159.034C78.6333 -158.649 82.6414 -158.233 86.6376 -157.786C87.1863 -157.725 87.6807 -158.12 87.7424 -158.669C91.083 -158.291 94.4155 -157.892 97.7394 -157.472C97.6698 -156.924 98.0571 -156.424 98.6047 -156.354C102.621 -155.841 106.625 -155.297 110.616 -154.723C111.163 -154.644 111.669 -155.023 111.748 -155.569C115.082 -155.085 118.406 -154.58 121.721 -154.053C121.634 -153.508 122.006 -152.995 122.551 -152.908C126.535 -152.27 130.507 -151.601 134.465 -150.901C135.008 -150.805 135.527 -151.168 135.623 -151.711C138.95 -151.119 142.267 -150.506 145.574 -149.871C145.469 -149.329 145.824 -148.805 146.366 -148.7C150.319 -147.936 154.258 -147.141 158.182 -146.317C158.722 -146.203 159.252 -146.549 159.366 -147.089C162.674 -146.39 165.972 -145.669 169.26 -144.927C169.138 -144.388 169.475 -143.853 170.014 -143.731C173.95 -142.837 177.87 -141.913 181.775 -140.959C182.312 -140.828 182.852 -141.156 182.984 -141.692C186.253 -140.889 189.511 -140.065 192.757 -139.22C192.618 -138.685 192.938 -138.139 193.472 -138C197.385 -136.975 201.282 -135.921 205.163 -134.837C205.695 -134.688 206.246 -134.999 206.395 -135.53C209.635 -134.62 212.864 -133.689 216.081 -132.738C215.924 -132.209 216.225 -131.652 216.754 -131.495C220.627 -130.344 224.483 -129.162 228.321 -127.951C228.848 -127.785 229.409 -128.077 229.576 -128.604C232.792 -127.584 235.997 -126.543 239.188 -125.482C239.014 -124.959 239.297 -124.393 239.82 -124.218C243.64 -122.942 247.441 -121.637 251.224 -120.303C251.745 -120.119 252.316 -120.392 252.5 -120.912C255.689 -119.783 258.864 -118.633 262.026 -117.462C261.834 -116.944 262.097 -116.369 262.615 -116.177C266.393 -114.772 270.151 -113.338 273.89 -111.875C274.404 -111.674 274.983 -111.927 275.185 -112.441C278.326 -111.207 281.454 -109.952 284.567 -108.677C284.358 -108.166 284.602 -107.582 285.112 -107.372C288.847 -105.837 292.562 -104.272 296.255 -102.678C296.762 -102.46 297.35 -102.693 297.569 -103.2C300.656 -101.863 303.728 -100.506 306.785 -99.1288C306.558 -98.6257 306.781 -98.0338 307.284 -97.8063C310.971 -96.1396 314.636 -94.4441 318.278 -92.7199C318.777 -92.4838 319.373 -92.6966 319.61 -93.1953C322.651 -91.7506 325.676 -90.286 328.686 -88.8017C328.442 -88.3068 328.644 -87.7074 329.139 -87.4625C332.759 -85.6707 336.356 -83.8505 339.93 -82.0021C340.421 -81.7485 341.024 -81.9402 341.277 -82.4303C344.272 -80.876 347.25 -79.3019 350.212 -77.7083C349.95 -77.2225 350.131 -76.6162 350.617 -76.3539C354.162 -74.4396 357.683 -72.4973 361.18 -70.5274C361.661 -70.2564 362.271 -70.4264 362.542 -70.9071C365.485 -69.2433 368.411 -67.56 371.319 -65.8573C371.039 -65.3812 371.199 -64.7688 371.675 -64.4892C375.148 -62.4488 378.596 -60.3807 382.018 -58.2855C382.488 -57.9973 383.104 -58.145 383.392 -58.6155C386.271 -56.8469 389.132 -55.059 391.974 -53.2521C391.678 -52.7865 391.814 -52.1687 392.28 -51.8718C395.681 -49.7021 399.056 -47.5051 402.403 -45.2813C402.863 -44.9758 403.483 -45.1007 403.789 -45.5602C406.593 -43.6911 409.378 -41.8032 412.144 -39.8966C411.83 -39.4424 411.944 -38.82 412.398 -38.506C415.721 -36.2076 419.016 -33.8823 422.282 -31.5306C422.73 -31.2078 423.355 -31.3096 423.678 -31.7578C426.403 -29.7889 429.109 -27.8017 431.794 -25.7962C431.463 -25.3542 431.552 -24.7275 431.994 -24.3963C435.232 -21.9702 438.44 -19.5176 441.618 -17.0389C442.053 -16.6992 442.682 -16.7769 443.021 -17.2124C445.673 -15.1368 448.305 -13.0431 450.915 -10.9315C450.566 -10.5027 450.632 -9.87291 451.061 -9.52483C454.196 -6.97996 457.3 -4.40917 460.372 -1.8129C460.794 -1.45645 461.425 -1.50945 461.781 -1.93131C464.354 0.249946 466.905 2.44912 469.433 4.66587C469.069 5.08055 469.109 5.71243 469.524 6.0772C472.55 8.73954 475.544 11.4272 478.506 14.1397C478.913 14.5127 479.545 14.485 479.918 14.0777C482.405 16.3634 484.869 18.6667 487.309 20.9872C486.928 21.3868 486.943 22.0198 487.342 22.401C490.255 25.1797 493.133 27.983 495.977 30.8105C496.369 31.1999 497.002 31.198 497.391 30.8064C499.785 33.1945 502.155 35.5999 504.5 38.0222C504.102 38.4057 504.091 39.0387 504.474 39.4362C507.272 42.3361 510.034 45.26 512.761 48.2076C513.135 48.6131 513.768 48.6378 514.174 48.2628C516.461 50.7448 518.723 53.2435 520.96 55.7586C520.547 56.1249 520.509 56.7569 520.875 57.1703C523.549 60.1888 526.187 63.2308 528.787 66.2959C529.144 66.7171 529.775 66.7689 530.197 66.4116C532.372 68.9856 534.521 71.5764 536.643 74.1824C536.215 74.5305 536.15 75.1598 536.497 75.5884C539.04 78.7225 541.545 81.8794 544.01 85.0587C544.348 85.4949 544.976 85.5746 545.412 85.2368C547.47 87.9007 549.5 90.5802 551.502 93.2751C551.059 93.6038 550.966 94.2296 551.294 94.6732C553.697 97.919 556.059 101.187 558.38 104.477C558.698 104.928 559.322 105.035 559.773 104.718C561.708 107.471 563.615 110.239 565.493 113.022C565.034 113.33 564.912 113.951 565.22 114.41C567.472 117.761 569.681 121.133 571.848 124.526C572.145 124.992 572.763 125.128 573.228 124.831C575.035 127.674 576.813 130.53 578.561 133.401C578.089 133.687 577.938 134.302 578.224 134.774C580.314 138.223 582.36 141.692 584.363 145.181C584.637 145.66 585.248 145.826 585.727 145.551C587.398 148.477 589.039 151.418 590.649 154.371C590.164 154.635 589.984 155.242 590.247 155.727C592.168 159.268 594.044 162.83 595.874 166.41C596.125 166.901 596.727 167.096 597.219 166.846C598.747 169.85 600.243 172.868 601.707 175.899C601.21 176.139 601.001 176.736 601.24 177.233C602.983 180.862 604.681 184.51 606.331 188.176C606.558 188.68 607.149 188.904 607.653 188.678C609.03 191.755 610.374 194.844 611.686 197.946C611.177 198.16 610.938 198.746 611.152 199.255C612.712 202.966 614.223 206.694 615.686 210.44C615.887 210.954 616.467 211.208 616.981 211.008C618.2 214.149 619.386 217.302 620.537 220.467C620.018 220.655 619.75 221.228 619.937 221.747C621.305 225.533 622.624 229.336 623.893 233.154C624.067 233.678 624.633 233.962 625.157 233.788C626.212 236.986 627.232 240.194 628.217 243.414C627.689 243.575 627.391 244.133 627.551 244.661C628.721 248.512 629.839 252.379 630.907 256.261C631.054 256.794 631.603 257.106 632.136 256.961C633.021 260.207 633.871 263.464 634.685 266.732C634.149 266.864 633.822 267.406 633.954 267.942C634.918 271.848 635.831 275.769 636.691 279.703C636.809 280.242 637.341 280.584 637.881 280.467C638.592 283.756 639.268 287.054 639.906 290.362C639.364 290.466 639.009 290.989 639.112 291.531C639.866 295.48 640.567 299.443 641.215 303.418C641.304 303.963 641.817 304.332 642.362 304.244C642.896 307.568 643.393 310.901 643.853 314.242C643.307 314.317 642.924 314.82 642.998 315.367C643.537 319.346 644.023 323.338 644.455 327.34C644.514 327.889 645.007 328.286 645.556 328.227C645.91 331.579 646.227 334.939 646.506 338.306C645.956 338.351 645.547 338.833 645.591 339.383C645.913 343.379 646.182 347.386 646.397 351.404C646.427 351.955 646.897 352.378 647.448 352.349C647.621 355.712 647.756 359.083 647.852 362.46C647.301 362.475 646.865 362.934 646.88 363.486C646.986 367.495 647.038 371.513 647.036 375.54C647.035 376.092 647.482 376.54 648.034 376.541Z" stroke="#B4B4B4" stroke-opacity="0.71" stroke-width="2" stroke-linecap="round" stroke-linejoin="round" stroke-dasharray="12 12"/>
<path d="M1509.2 705.165C1510.28 708.345 1511.29 711.555 1512.24 714.796C1511.71 714.949 1511.4 715.501 1511.55 716.032C1512.1 717.968 1512.63 719.914 1513.14 721.871C1513.64 723.829 1514.11 725.789 1514.56 727.751C1514.69 728.289 1515.22 728.625 1515.76 728.504C1516.5 731.797 1517.16 735.098 1517.74 738.405C1517.2 738.5 1516.84 739.016 1516.93 739.56C1517.62 743.533 1518.2 747.514 1518.67 751.504C1518.73 752.052 1519.23 752.443 1519.77 752.38C1520.15 755.731 1520.46 759.087 1520.69 762.448C1520.14 762.484 1519.72 762.959 1519.76 763.509C1520.02 767.521 1520.17 771.539 1520.21 775.561C1520.22 776.113 1520.67 776.555 1521.22 776.549C1521.25 779.917 1521.2 783.287 1521.08 786.66C1520.53 786.639 1520.07 787.068 1520.04 787.619C1519.88 791.627 1519.62 795.637 1519.26 799.649C1519.21 800.199 1519.61 800.684 1520.16 800.735C1519.85 804.087 1519.46 807.439 1519 810.791C1518.46 810.715 1517.95 811.096 1517.88 811.643C1517.32 815.611 1516.67 819.579 1515.92 823.546C1515.82 824.088 1516.18 824.611 1516.72 824.714C1516.08 828.009 1515.38 831.303 1514.62 834.594C1514.08 834.468 1513.54 834.801 1513.41 835.337C1512.49 839.24 1511.48 843.139 1510.37 847.033C1510.22 847.564 1510.53 848.116 1511.06 848.268C1510.14 851.493 1509.15 854.715 1508.1 857.933C1507.57 857.761 1507.01 858.046 1506.84 858.57C1505.58 862.366 1504.25 866.157 1502.83 869.941C1502.63 870.458 1502.89 871.034 1503.41 871.229C1502.22 874.374 1500.97 877.515 1499.66 880.65C1499.15 880.437 1498.56 880.676 1498.35 881.185C1496.8 884.868 1495.17 888.543 1493.47 892.209C1493.23 892.709 1493.45 893.304 1493.95 893.537C1492.53 896.572 1491.05 899.601 1489.52 902.622C1489.03 902.373 1488.43 902.568 1488.18 903.06C1486.36 906.638 1484.46 910.206 1482.49 913.763C1482.22 914.245 1482.4 914.853 1482.88 915.121C1481.25 918.039 1479.58 920.948 1477.86 923.85C1477.38 923.567 1476.77 923.722 1476.49 924.196C1474.43 927.637 1472.31 931.067 1470.12 934.483C1469.82 934.948 1469.95 935.566 1470.42 935.864C1468.6 938.684 1466.74 941.494 1464.83 944.296C1464.38 943.985 1463.75 944.101 1463.44 944.557C1461.18 947.857 1458.86 951.143 1456.48 954.415C1456.16 954.861 1456.25 955.486 1456.7 955.812C1454.71 958.531 1452.68 961.241 1450.6 963.941C1450.17 963.604 1449.54 963.685 1449.2 964.122C1446.76 967.28 1444.27 970.424 1441.72 973.552C1441.37 973.98 1441.43 974.61 1441.86 974.959C1439.73 977.562 1437.56 980.154 1435.35 982.735C1434.93 982.376 1434.3 982.423 1433.94 982.842C1431.33 985.875 1428.67 988.892 1425.95 991.892C1425.58 992.301 1425.61 992.933 1426.02 993.304C1423.77 995.79 1421.47 998.264 1419.14 1000.73C1418.74 1000.35 1418.11 1000.36 1417.73 1000.76C1414.97 1003.67 1412.16 1006.56 1409.3 1009.44C1408.91 1009.83 1408.91 1010.46 1409.3 1010.85C1406.93 1013.22 1404.53 1015.58 1402.1 1017.93C1401.71 1017.53 1401.08 1017.52 1400.68 1017.9C1397.78 1020.68 1394.84 1023.45 1391.85 1026.2C1391.44 1026.57 1391.41 1027.2 1391.79 1027.61C1389.32 1029.87 1386.82 1032.12 1384.29 1034.35C1383.92 1033.94 1383.29 1033.9 1382.88 1034.26C1379.85 1036.92 1376.79 1039.56 1373.68 1042.18C1373.26 1042.54 1373.21 1043.17 1373.56 1043.59C1371 1045.74 1368.41 1047.88 1365.8 1050.01C1365.45 1049.58 1364.82 1049.51 1364.39 1049.86C1361.26 1052.4 1358.09 1054.91 1354.87 1057.41C1354.44 1057.75 1354.36 1058.38 1354.7 1058.81C1352.06 1060.86 1349.39 1062.89 1346.69 1064.91C1346.36 1064.47 1345.74 1064.38 1345.29 1064.71C1342.06 1067.12 1338.8 1069.51 1335.5 1071.88C1335.05 1072.2 1334.94 1072.82 1335.27 1073.27C1332.55 1075.22 1329.8 1077.15 1327.03 1079.07C1326.72 1078.61 1326.09 1078.5 1325.64 1078.81C1322.32 1081.1 1318.97 1083.37 1315.58 1085.62C1315.12 1085.92 1315 1086.54 1315.3 1087C1312.51 1088.85 1309.7 1090.68 1306.86 1092.5C1306.57 1092.03 1305.95 1091.89 1305.48 1092.19C1302.08 1094.36 1298.65 1096.51 1295.19 1098.63C1294.72 1098.92 1294.57 1099.54 1294.86 1100.01C1292.01 1101.76 1289.13 1103.49 1286.23 1105.2C1285.95 1104.73 1285.34 1104.57 1284.86 1104.85C1281.39 1106.9 1277.89 1108.93 1274.35 1110.94C1273.87 1111.21 1273.71 1111.82 1273.98 1112.3C1271.07 1113.95 1268.14 1115.59 1265.18 1117.2C1264.92 1116.72 1264.31 1116.54 1263.83 1116.81C1260.29 1118.74 1256.72 1120.65 1253.13 1122.54C1252.64 1122.8 1252.45 1123.4 1252.71 1123.89C1249.74 1125.44 1246.76 1126.98 1243.75 1128.5C1243.5 1128.01 1242.9 1127.81 1242.41 1128.06C1238.81 1129.88 1235.19 1131.67 1231.54 1133.44C1231.04 1133.68 1230.83 1134.28 1231.07 1134.78C1228.06 1136.24 1225.02 1137.68 1221.96 1139.11C1221.73 1138.61 1221.14 1138.39 1220.64 1138.63C1216.99 1140.33 1213.31 1142.01 1209.61 1143.66C1209.11 1143.88 1208.88 1144.48 1209.11 1144.98C1206.04 1146.35 1202.96 1147.7 1199.85 1149.03C1199.64 1148.53 1199.05 1148.29 1198.54 1148.51C1194.85 1150.09 1191.12 1151.66 1187.38 1153.19C1186.87 1153.4 1186.63 1153.99 1186.84 1154.5C1183.72 1155.77 1180.59 1157.03 1177.45 1158.27C1177.25 1157.76 1176.67 1157.51 1176.15 1157.71C1172.41 1159.18 1168.65 1160.63 1164.87 1162.05C1164.35 1162.25 1164.09 1162.83 1164.29 1163.34C1161.13 1164.53 1157.96 1165.69 1154.78 1166.84C1154.59 1166.32 1154.02 1166.05 1153.5 1166.24C1149.72 1167.6 1145.92 1168.93 1142.1 1170.24C1141.58 1170.42 1141.3 1170.99 1141.48 1171.51C1138.29 1172.61 1135.08 1173.68 1131.85 1174.74C1131.68 1174.21 1131.12 1173.93 1130.59 1174.1C1126.78 1175.35 1122.95 1176.57 1119.1 1177.76C1118.57 1177.93 1118.28 1178.49 1118.44 1179.02C1115.22 1180.01 1111.99 1180.99 1108.74 1181.96C1108.58 1181.43 1108.02 1181.13 1107.49 1181.28C1103.64 1182.42 1099.78 1183.53 1095.89 1184.62C1095.36 1184.77 1095.05 1185.32 1095.19 1185.85C1091.95 1186.76 1088.69 1187.64 1085.43 1188.51C1085.28 1187.98 1084.74 1187.66 1084.2 1187.8C1082.25 1188.32 1080.29 1188.83 1078.32 1189.34C1076.36 1189.84 1074.39 1190.34 1072.43 1190.83C1071.89 1190.96 1071.57 1191.5 1071.7 1192.04C1068.42 1192.86 1065.14 1193.65 1061.86 1194.42C1061.74 1193.88 1061.2 1193.55 1060.66 1193.68C1056.73 1194.6 1052.8 1195.49 1048.88 1196.35C1048.34 1196.47 1048 1197 1048.12 1197.54C1044.81 1198.26 1041.5 1198.96 1038.2 1199.64C1038.09 1199.1 1037.56 1198.75 1037.02 1198.86C1033.07 1199.67 1029.12 1200.45 1025.18 1201.19C1024.64 1201.3 1024.28 1201.82 1024.39 1202.36C1021.05 1202.99 1017.72 1203.6 1014.4 1204.18C1014.3 1203.64 1013.78 1203.27 1013.24 1203.37C1009.26 1204.06 1005.29 1204.72 1001.33 1205.35C1000.78 1205.44 1000.41 1205.95 1000.5 1206.5C997.154 1207.03 993.814 1207.53 990.479 1208.02C990.4 1207.47 989.893 1207.09 989.346 1207.17C985.345 1207.75 981.352 1208.29 977.367 1208.81C976.819 1208.88 976.432 1209.38 976.503 1209.93C973.149 1210.36 969.801 1210.76 966.459 1211.15C966.397 1210.6 965.901 1210.2 965.353 1210.27C961.331 1210.72 957.318 1211.15 953.315 1211.54C952.766 1211.6 952.364 1212.09 952.418 1212.63C949.058 1212.96 945.704 1213.26 942.358 1213.55C942.312 1213 941.829 1212.59 941.279 1212.63C937.24 1212.97 933.212 1213.27 929.195 1213.54C928.645 1213.58 928.228 1214.05 928.265 1214.6C924.9 1214.83 921.543 1215.03 918.195 1215.2C918.166 1214.65 917.696 1214.23 917.145 1214.26C913.093 1214.46 909.054 1214.64 905.027 1214.78C904.476 1214.8 904.044 1215.27 904.064 1215.82C900.697 1215.93 897.34 1216.03 893.991 1216.1C893.98 1215.54 893.524 1215.1 892.972 1215.12C888.912 1215.19 884.866 1215.24 880.834 1215.25C880.282 1215.25 879.836 1215.7 879.837 1216.25C876.471 1216.26 873.116 1216.24 869.771 1216.2C869.778 1215.65 869.336 1215.2 868.784 1215.19C864.72 1215.14 860.672 1215.05 856.641 1214.92C856.089 1214.91 855.628 1215.34 855.611 1215.89C852.245 1215.79 848.89 1215.66 845.548 1215.5C845.574 1214.95 845.148 1214.48 844.597 1214.46C840.537 1214.26 836.496 1214.04 832.473 1213.78C831.922 1213.74 831.447 1214.16 831.411 1214.71C828.049 1214.48 824.701 1214.24 821.367 1213.97C821.412 1213.42 821.003 1212.93 820.453 1212.89C816.402 1212.55 812.372 1212.18 808.363 1211.78C807.813 1211.72 807.323 1212.12 807.267 1212.67C803.916 1212.33 800.58 1211.96 797.259 1211.56C797.324 1211.02 796.933 1210.52 796.385 1210.45C792.348 1209.97 788.334 1209.45 784.343 1208.9C783.796 1208.82 783.291 1209.2 783.215 1209.75C779.881 1209.28 776.563 1208.78 773.261 1208.27C773.348 1207.72 772.976 1207.21 772.43 1207.12C768.412 1206.48 764.42 1205.81 760.453 1205.1C759.909 1205 759.39 1205.36 759.292 1205.91C755.976 1205.31 752.677 1204.68 749.397 1204.03C749.505 1203.49 749.154 1202.96 748.613 1202.85C744.626 1202.06 740.667 1201.22 736.738 1200.35C736.199 1200.23 735.665 1200.57 735.545 1201.11C732.251 1200.37 728.977 1199.61 725.724 1198.82C725.855 1198.28 725.526 1197.74 724.99 1197.61C721.045 1196.64 717.131 1195.64 713.249 1194.6C712.716 1194.46 712.168 1194.77 712.025 1195.31C708.76 1194.43 705.518 1193.52 702.299 1192.58C702.453 1192.05 702.149 1191.5 701.62 1191.34C697.728 1190.2 693.871 1189.03 690.05 1187.81C689.524 1187.64 688.962 1187.93 688.794 1188.46C685.566 1187.42 682.364 1186.36 679.187 1185.27C679.367 1184.75 679.09 1184.18 678.568 1184C674.744 1182.68 670.958 1181.32 667.211 1179.92C666.694 1179.73 666.118 1179.99 665.924 1180.51C662.744 1179.31 659.591 1178.09 656.468 1176.84C656.674 1176.33 656.426 1175.74 655.914 1175.54C652.17 1174.03 648.468 1172.48 644.81 1170.89C644.304 1170.67 643.715 1170.9 643.494 1171.4C640.376 1170.04 637.289 1168.64 634.234 1167.22C634.468 1166.72 634.252 1166.13 633.753 1165.89C630.088 1164.17 626.47 1162.41 622.9 1160.61C622.407 1160.36 621.806 1160.56 621.557 1161.05C618.535 1159.52 615.548 1157.96 612.596 1156.36C612.859 1155.88 612.679 1155.27 612.194 1155.01C608.628 1153.07 605.115 1151.09 601.655 1149.07C601.178 1148.79 600.567 1148.95 600.287 1149.42C597.379 1147.71 594.509 1145.97 591.678 1144.2C591.971 1143.73 591.831 1143.11 591.364 1142.82C587.924 1140.65 584.541 1138.44 581.219 1136.19C580.762 1135.88 580.141 1136 579.831 1136.45C577.034 1134.54 574.281 1132.6 571.57 1130.63C571.895 1130.18 571.798 1129.56 571.353 1129.23C568.091 1126.84 564.892 1124.41 561.758 1121.93C561.326 1121.59 560.698 1121.66 560.355 1122.09C557.698 1119.98 555.088 1117.83 552.526 1115.65C552.884 1115.23 552.835 1114.6 552.416 1114.24C549.347 1111.61 546.347 1108.93 543.419 1106.21C543.015 1105.83 542.383 1105.86 542.007 1106.26C539.536 1103.95 537.117 1101.6 534.75 1099.22C535.141 1098.83 535.144 1098.2 534.757 1097.81C531.911 1094.93 529.143 1092 526.453 1089.03C526.083 1088.62 525.451 1088.59 525.042 1088.96C522.784 1086.44 520.582 1083.9 518.437 1081.32C518.862 1080.96 518.922 1080.33 518.571 1079.91C516.003 1076.79 513.517 1073.63 511.117 1070.42C510.787 1069.98 510.161 1069.89 509.719 1070.22C507.703 1067.5 505.748 1064.75 503.855 1061.97C504.311 1061.66 504.431 1061.04 504.123 1060.58C501.871 1057.24 499.707 1053.86 497.635 1050.42C497.35 1049.95 496.736 1049.8 496.264 1050.08C494.532 1047.19 492.864 1044.26 491.262 1041.29C491.748 1041.03 491.93 1040.43 491.67 1039.94C489.772 1036.4 487.967 1032.8 486.258 1029.16C486.024 1028.66 485.43 1028.45 484.93 1028.68C483.512 1025.63 482.161 1022.54 480.878 1019.42C481.388 1019.21 481.634 1018.63 481.426 1018.12C479.914 1014.4 478.5 1010.63 477.186 1006.82C477.006 1006.3 476.438 1006.02 475.917 1006.2C474.836 1003.02 473.824 999.81 472.881 996.569C473.411 996.416 473.718 995.863 473.566 995.333C473.013 993.397 472.484 991.451 471.981 989.494C471.478 987.536 471.002 985.576 470.554 983.614C470.431 983.076 469.896 982.74 469.358 982.861C468.621 979.568 467.959 976.267 467.373 972.96C467.916 972.865 468.279 972.348 468.186 971.805C467.499 967.832 466.922 963.851 466.451 959.861C466.386 959.313 465.891 958.922 465.343 958.985C464.963 955.634 464.658 952.278 464.427 948.917C464.977 948.881 465.394 948.406 465.359 947.856C465.101 943.844 464.949 939.826 464.902 935.804C464.896 935.252 464.444 934.81 463.893 934.816C463.868 931.448 463.916 928.078 464.036 924.705C464.587 924.726 465.051 924.297 465.073 923.746C465.233 919.738 465.495 915.728 465.857 911.716C465.907 911.166 465.502 910.681 464.953 910.63C465.27 907.278 465.657 903.926 466.112 900.574C466.658 900.65 467.163 900.269 467.239 899.722C467.795 895.754 468.447 891.786 469.196 887.819C469.298 887.277 468.942 886.754 468.4 886.651C469.035 883.356 469.735 880.062 470.501 876.771C471.037 876.897 471.575 876.564 471.702 876.027C472.624 872.125 473.638 868.226 474.743 864.332C474.893 863.801 474.585 863.249 474.055 863.097C474.982 859.872 475.97 856.65 477.019 853.432C477.543 853.604 478.108 853.319 478.281 852.795C479.533 848.999 480.87 845.208 482.291 841.424C482.485 840.907 482.223 840.331 481.707 840.136C482.9 836.991 484.151 833.85 485.458 830.715C485.967 830.928 486.552 830.689 486.766 830.18C488.316 826.497 489.944 822.822 491.65 819.156C491.883 818.656 491.666 818.061 491.166 817.828C492.59 814.793 494.066 811.764 495.595 808.743C496.087 808.992 496.688 808.797 496.938 808.305C498.762 804.727 500.658 801.159 502.628 797.602C502.895 797.12 502.721 796.512 502.238 796.244C503.864 793.326 505.539 790.417 507.261 787.515C507.735 787.797 508.348 787.643 508.631 787.169C510.687 783.728 512.81 780.298 514.999 776.882C515.297 776.417 515.162 775.799 514.698 775.501C516.516 772.681 518.378 769.87 520.286 767.069C520.741 767.38 521.363 767.263 521.675 766.808C523.933 763.508 526.254 760.222 528.636 756.95C528.961 756.504 528.863 755.879 528.417 755.553C530.407 752.833 532.439 750.124 534.513 747.424C534.95 747.761 535.578 747.68 535.915 747.243C538.353 744.085 540.848 740.941 543.4 737.812C543.748 737.385 543.685 736.755 543.258 736.406C545.39 733.803 547.562 731.211 549.771 728.63C550.19 728.989 550.821 728.942 551.181 728.523C553.789 725.49 556.45 722.473 559.163 719.473C559.534 719.064 559.502 718.432 559.093 718.061C561.351 715.575 563.644 713.101 565.973 710.639C566.374 711.018 567.006 711.002 567.386 710.601C570.148 707.693 572.959 704.801 575.819 701.927C576.208 701.536 576.207 700.903 575.816 700.514C578.185 698.142 580.587 695.783 583.022 693.436C583.405 693.834 584.037 693.847 584.435 693.464C587.334 690.68 590.279 687.914 593.27 685.167C593.677 684.794 593.704 684.161 593.331 683.755C595.8 681.495 598.299 679.247 600.83 677.013C601.195 677.427 601.826 677.467 602.24 677.102C605.262 674.443 608.328 671.802 611.435 669.181C611.857 668.825 611.911 668.194 611.555 667.772C614.115 665.621 616.703 663.482 619.319 661.357C619.667 661.786 620.296 661.852 620.725 661.505C623.858 658.969 627.03 656.453 630.243 653.956C630.678 653.618 630.757 652.99 630.419 652.554C633.061 650.508 635.729 648.475 638.424 646.456C638.755 646.898 639.381 646.989 639.823 646.658C643.052 644.248 646.318 641.857 649.622 639.487C650.07 639.165 650.173 638.54 649.852 638.092C652.572 636.146 655.317 634.215 658.086 632.298C658.4 632.752 659.022 632.866 659.477 632.552C662.794 630.263 666.146 627.995 669.532 625.748C669.992 625.443 670.118 624.823 669.813 624.363C672.604 622.517 675.417 620.686 678.254 618.87C678.551 619.335 679.169 619.471 679.635 619.174C683.033 617.005 686.464 614.857 689.927 612.731C690.397 612.442 690.545 611.826 690.256 611.356C693.11 609.609 695.986 607.878 698.883 606.161C699.164 606.636 699.777 606.793 700.252 606.513C703.725 604.461 707.228 602.432 710.762 600.424C711.242 600.151 711.41 599.541 711.138 599.061C714.049 597.413 716.98 595.779 719.932 594.161C720.197 594.645 720.804 594.823 721.289 594.559C724.827 592.625 728.393 590.714 731.988 588.825C732.477 588.569 732.665 587.965 732.409 587.476C735.375 585.922 738.361 584.384 741.366 582.862C741.615 583.354 742.217 583.552 742.709 583.303C746.306 581.487 749.929 579.693 753.579 577.922C754.076 577.681 754.283 577.083 754.043 576.586C757.061 575.126 760.098 573.682 763.153 572.254C763.386 572.754 763.981 572.971 764.481 572.738C768.13 571.037 771.805 569.36 775.504 567.705C776.008 567.48 776.234 566.889 776.009 566.385C779.077 565.018 782.161 563.667 785.262 562.332C785.48 562.84 786.067 563.074 786.575 562.857C790.272 561.271 793.992 559.709 797.736 558.17C798.246 557.96 798.49 557.376 798.281 556.866C801.393 555.591 804.522 554.332 807.667 553.09C807.869 553.604 808.449 553.856 808.963 553.654C812.702 552.182 816.464 550.734 820.247 549.31C820.764 549.116 821.025 548.539 820.831 548.023C823.986 546.839 827.157 545.673 830.342 544.523C830.529 545.042 831.101 545.312 831.621 545.125C835.398 543.766 839.196 542.432 843.015 541.121C843.537 540.942 843.815 540.374 843.636 539.852C846.831 538.759 850.04 537.684 853.264 536.626C853.435 537.151 854 537.437 854.525 537.265C858.336 536.02 862.166 534.798 866.016 533.6C866.543 533.436 866.838 532.876 866.674 532.349C869.896 531.351 873.132 530.37 876.38 529.406C876.537 529.936 877.093 530.238 877.622 530.082C881.473 528.944 885.342 527.832 889.229 526.744C889.76 526.595 890.071 526.043 889.922 525.512C893.166 524.608 896.422 523.721 899.691 522.852C899.832 523.386 900.379 523.704 900.913 523.563C902.869 523.045 904.83 522.534 906.795 522.029C908.76 521.524 910.724 521.026 912.687 520.536C913.223 520.403 913.549 519.86 913.416 519.325C916.698 518.51 919.978 517.716 923.255 516.944C923.382 517.481 923.92 517.815 924.457 517.689C928.387 516.767 932.313 515.876 936.235 515.016C936.774 514.897 937.115 514.364 936.997 513.825C940.308 513.103 943.615 512.402 946.919 511.722C947.03 512.263 947.558 512.612 948.099 512.501C952.049 511.694 955.994 510.917 959.933 510.171C960.476 510.068 960.832 509.545 960.73 509.003C964.064 508.375 967.394 507.77 970.719 507.186C970.814 507.729 971.332 508.093 971.876 507.998C975.853 507.305 979.824 506.643 983.788 506.011C984.333 505.924 984.705 505.412 984.618 504.867C987.963 504.338 991.303 503.831 994.638 503.347C994.717 503.893 995.224 504.272 995.77 504.193C999.772 503.616 1003.77 503.071 1007.75 502.557C1008.3 502.486 1008.68 501.985 1008.61 501.438C1011.97 501.009 1015.32 500.603 1018.66 500.219C1018.72 500.767 1019.22 501.161 1019.76 501.099C1023.79 500.642 1027.8 500.216 1031.8 499.823C1032.35 499.769 1032.75 499.28 1032.7 498.73C1036.06 498.404 1039.41 498.1 1042.76 497.819C1042.8 498.369 1043.29 498.778 1043.84 498.732C1047.88 498.397 1051.9 498.095 1055.92 497.825C1056.47 497.788 1056.89 497.311 1056.85 496.761C1060.22 496.539 1063.57 496.339 1066.92 496.163C1066.95 496.714 1067.42 497.138 1067.97 497.109C1072.02 496.9 1076.06 496.725 1080.09 496.581C1080.64 496.562 1081.07 496.099 1081.05 495.547C1084.42 495.432 1087.78 495.34 1091.13 495.27C1091.14 495.822 1091.59 496.26 1092.14 496.25C1096.2 496.17 1100.25 496.125 1104.28 496.112C1104.83 496.111 1105.28 495.662 1105.28 495.11C1108.65 495.104 1112 495.122 1115.35 495.162C1115.34 495.714 1115.78 496.167 1116.33 496.175C1120.4 496.229 1124.44 496.318 1128.48 496.44C1129.03 496.457 1129.49 496.023 1129.51 495.472C1132.87 495.579 1136.23 495.709 1139.57 495.863C1139.54 496.414 1139.97 496.882 1140.52 496.908C1144.58 497.101 1148.62 497.328 1152.64 497.59C1153.19 497.626 1153.67 497.208 1153.71 496.658C1157.07 496.881 1160.42 497.128 1163.75 497.399C1163.7 497.95 1164.11 498.432 1164.66 498.478C1168.71 498.813 1172.74 499.184 1176.75 499.589C1177.3 499.645 1177.79 499.245 1177.85 498.696C1181.2 499.04 1184.54 499.408 1187.86 499.801C1187.79 500.349 1188.18 500.846 1188.73 500.912C1192.77 501.395 1196.78 501.915 1200.77 502.47C1201.32 502.546 1201.83 502.164 1201.9 501.618C1205.24 502.087 1208.55 502.581 1211.86 503.099C1211.77 503.644 1212.14 504.156 1212.69 504.243C1216.7 504.881 1220.7 505.555 1224.66 506.266C1225.21 506.363 1225.73 506.002 1225.82 505.459C1229.14 506.059 1232.44 506.684 1235.72 507.335C1235.61 507.876 1235.96 508.402 1236.5 508.511C1240.49 509.309 1244.45 510.144 1248.38 511.016C1248.92 511.136 1249.45 510.796 1249.57 510.258C1252.87 510.995 1256.14 511.758 1259.39 512.548C1259.26 513.084 1259.59 513.625 1260.13 513.756C1264.07 514.72 1267.99 515.723 1271.87 516.764C1272.4 516.907 1272.95 516.591 1273.09 516.058C1276.36 516.94 1279.6 517.848 1282.82 518.783C1282.66 519.313 1282.97 519.868 1283.5 520.023C1287.39 521.162 1291.25 522.339 1295.07 523.555C1295.59 523.723 1296.16 523.432 1296.32 522.907C1299.55 523.941 1302.75 525.003 1305.93 526.092C1305.75 526.614 1306.03 527.182 1306.55 527.362C1310.37 528.682 1314.16 530.042 1317.91 531.441C1318.42 531.634 1319 531.372 1319.19 530.855C1322.37 532.051 1325.53 533.274 1328.65 534.526C1328.44 535.038 1328.69 535.62 1329.2 535.827C1332.95 537.337 1336.65 538.888 1340.31 540.479C1340.81 540.699 1341.4 540.468 1341.62 539.962C1344.74 541.327 1347.83 542.721 1350.88 544.144C1350.65 544.644 1350.86 545.238 1351.36 545.473C1355.03 547.191 1358.65 548.95 1362.22 550.752C1362.71 551.001 1363.31 550.803 1363.56 550.311C1366.58 551.845 1369.57 553.409 1372.52 555.003C1372.26 555.488 1372.44 556.095 1372.92 556.358C1376.49 558.295 1380 560.276 1383.46 562.299C1383.94 562.578 1384.55 562.418 1384.83 561.942C1387.74 563.653 1390.61 565.395 1393.44 567.166C1393.15 567.634 1393.29 568.25 1393.75 568.544C1397.19 570.711 1400.58 572.922 1403.9 575.177C1404.35 575.487 1404.98 575.368 1405.29 574.912C1408.08 576.822 1410.84 578.763 1413.55 580.736C1413.22 581.181 1413.32 581.806 1413.76 582.132C1417.03 584.521 1420.22 586.956 1423.36 589.435C1423.79 589.778 1424.42 589.705 1424.76 589.273C1427.42 591.389 1430.03 593.537 1432.59 595.718C1432.23 596.137 1432.28 596.768 1432.7 597.127C1435.77 599.757 1438.77 602.433 1441.7 605.155C1442.1 605.531 1442.73 605.508 1443.11 605.105C1445.58 607.418 1448 609.764 1450.37 612.142C1449.98 612.531 1449.97 613.163 1450.36 613.555C1453.21 616.435 1455.97 619.362 1458.66 622.335C1459.03 622.744 1459.67 622.776 1460.08 622.407C1462.33 624.922 1464.53 627.469 1466.68 630.05C1466.25 630.401 1466.19 631.031 1466.55 631.456C1469.11 634.571 1471.6 637.732 1474 640.941C1474.33 641.383 1474.96 641.473 1475.4 641.144C1477.41 643.861 1479.37 646.611 1481.26 649.394C1480.81 649.703 1480.69 650.324 1480.99 650.781C1483.25 654.121 1485.41 657.508 1487.48 660.942C1487.77 661.414 1488.38 661.566 1488.85 661.282C1490.58 664.179 1492.25 667.108 1493.85 670.07C1493.37 670.332 1493.19 670.937 1493.45 671.423C1495.35 674.969 1497.15 678.562 1498.86 682.201C1499.09 682.7 1499.69 682.915 1500.19 682.682C1501.6 685.737 1502.96 688.824 1504.24 691.943C1503.73 692.152 1503.48 692.734 1503.69 693.245C1505.2 696.967 1506.62 700.734 1507.93 704.545C1508.11 705.066 1508.68 705.343 1509.2 705.165Z" stroke="#6D6D6D" stroke-opacity="0.53" stroke-width="2" stroke-linecap="round" stroke-linejoin="round" stroke-dasharray="12 12"/>
<ellipse cx="-125.5" cy="412.433" rx="451.5" ry="438.433" fill="url(#paint2_radial_853_3454)" fill-opacity="0.25"/>
</g>
<defs>
<radialGradient id="paint0_radial_853_3454" cx="0" cy="0" r="1" gradientUnits="userSpaceOnUse" gradientTransform="translate(320 699.5) rotate(127.193) scale(429.772 434.119)">
<stop stop-color="#8146FF"/>
<stop offset="1" stop-color="#1C6AC5" stop-opacity="0.05"/>
</radialGradient>
<radialGradient id="paint1_radial_853_3454" cx="0" cy="0" r="1" gradientUnits="userSpaceOnUse" gradientTransform="translate(824 765.076) rotate(127.193) scale(353.425 357)">
<stop stop-color="#1C6AC5"/>
<stop offset="1" stop-color="#0066FF" stop-opacity="0.06"/>
</radialGradient>
<radialGradient id="paint2_radial_853_3454" cx="0" cy="0" r="1" gradientUnits="userSpaceOnUse" gradientTransform="translate(-125.5 412.433) rotate(127.193) scale(387.31 391.227)">
<stop stop-color="#1987FB"/>
<stop offset="1" stop-color="#1987FB" stop-opacity="0"/>
</radialGradient>
<clipPath id="clip0_853_3454">
<rect width="1512" height="907" fill="white"/>
</clipPath>
</defs>
</svg>
